<svg width="661" height="474" viewBox="0 0 661 474" fill="none" xmlns="http://www.w3.org/2000/svg">
<path d="M8.85333 447V372.333H41.1733C47.8578 372.333 53.6178 373.436 58.4533 375.64C63.2889 377.773 67.0222 380.867 69.6533 384.92C72.2844 388.973 73.6 393.809 73.6 399.427C73.6 404.973 72.2844 409.773 69.6533 413.827C67.0222 417.809 63.2889 420.867 58.4533 423C53.6178 425.133 47.8578 426.2 41.1733 426.2H18.4533L26.1333 418.627V447H8.85333ZM56.32 447L37.6533 419.907H56.1067L74.9867 447H56.32ZM26.1333 420.547L18.4533 412.44H40.2133C45.5467 412.44 49.5289 411.302 52.16 409.027C54.7911 406.68 56.1067 403.48 56.1067 399.427C56.1067 395.302 54.7911 392.102 52.16 389.827C49.5289 387.551 45.5467 386.413 40.2133 386.413H18.4533L26.1333 378.2V420.547ZM87.2908 447V372.333H104.571V447H87.2908ZM144.378 447L112.165 372.333H130.832L158.992 438.467H148.005L176.592 372.333H193.765L161.445 447H144.378ZM215.892 402.413H251.839V415.853H215.892V402.413ZM217.172 433.133H257.812V447H199.999V372.333H256.426V386.2H217.172V433.133ZM271.562 447V372.333H303.882C310.566 372.333 316.326 373.436 321.162 375.64C325.997 377.773 329.731 380.867 332.362 384.92C334.993 388.973 336.308 393.809 336.308 399.427C336.308 404.973 334.993 409.773 332.362 413.827C329.731 417.809 325.997 420.867 321.162 423C316.326 425.133 310.566 426.2 303.882 426.2H281.162L288.842 418.627V447H271.562ZM319.028 447L300.362 419.907H318.815L337.695 447H319.028ZM288.842 420.547L281.162 412.44H302.922C308.255 412.44 312.237 411.302 314.868 409.027C317.499 406.68 318.815 403.48 318.815 399.427C318.815 395.302 317.499 392.102 314.868 389.827C312.237 387.551 308.255 386.413 302.922 386.413H281.162L288.842 378.2V420.547ZM349.999 447V372.333H386.479C395.866 372.333 402.906 374.111 407.599 377.667C412.364 381.222 414.746 385.916 414.746 391.747C414.746 395.658 413.786 399.071 411.866 401.987C409.946 404.831 407.315 407.036 403.972 408.6C400.63 410.164 396.79 410.947 392.452 410.947L394.479 406.573C399.172 406.573 403.332 407.356 406.959 408.92C410.586 410.413 413.395 412.653 415.386 415.64C417.448 418.627 418.479 422.289 418.479 426.627C418.479 433.027 415.955 438.04 410.906 441.667C405.857 445.222 398.426 447 388.612 447H349.999ZM367.172 433.987H387.332C391.812 433.987 395.19 433.276 397.466 431.853C399.812 430.36 400.986 428.013 400.986 424.813C400.986 421.684 399.812 419.373 397.466 417.88C395.19 416.316 391.812 415.533 387.332 415.533H365.892V402.947H384.346C388.541 402.947 391.741 402.236 393.946 400.813C396.221 399.32 397.359 397.08 397.359 394.093C397.359 391.178 396.221 389.009 393.946 387.587C391.741 386.093 388.541 385.347 384.346 385.347H367.172V433.987ZM447.455 402.413H483.402V415.853H447.455V402.413ZM448.735 433.133H489.375V447H431.562V372.333H487.988V386.2H448.735V433.133ZM503.124 447V372.333H517.417L561.471 426.093H554.537V372.333H571.604V447H557.417L513.257 393.24H520.191V447H503.124ZM604.737 429.933L603.777 409.987L639.51 372.333H658.71L626.497 407L616.897 417.24L604.737 429.933ZM589.27 447V372.333H606.443V447H589.27ZM640.363 447L613.803 414.467L625.11 402.2L660.523 447H640.363Z" fill="#022C7B"/>
<path fill-rule="evenodd" clip-rule="evenodd" d="M329.833 52.1714H140.3C145.703 65.5967 168.639 104.342 199.011 104.342H271.123C301.493 104.342 324.431 65.5967 329.833 52.1714Z" fill="#0076A8"/>
<path fill-rule="evenodd" clip-rule="evenodd" d="M329.833 143.954H140.3C145.703 157.379 168.639 196.125 199.011 196.125H271.123C301.493 196.125 324.431 157.379 329.833 143.954Z" fill="#4256FF"/>
<path fill-rule="evenodd" clip-rule="evenodd" d="M329.833 235.736H140.3C145.703 249.161 168.639 287.908 199.011 287.908H271.123C301.493 287.908 324.431 249.161 329.833 235.736Z" fill="#022C7B"/>
<path fill-rule="evenodd" clip-rule="evenodd" d="M615.203 143.954H520.435C525.839 157.379 548.775 196.125 579.146 196.125H615.203V143.954Z" fill="#4256FF"/>
<path fill-rule="evenodd" clip-rule="evenodd" d="M388.543 -7.62939e-06C358.172 -7.62939e-06 335.238 38.7453 329.834 52.1707H520.435C515.032 38.7453 492.092 -7.62939e-06 461.727 -7.62939e-06H388.543Z" fill="#0076A8"/>
<path fill-rule="evenodd" clip-rule="evenodd" d="M388.543 91.782C358.172 91.782 335.238 130.527 329.834 143.954H520.435C515.032 130.527 492.092 91.782 461.727 91.782H388.543Z" fill="#4256FF"/>
<path fill-rule="evenodd" clip-rule="evenodd" d="M45 235.736H140.3C134.897 222.31 111.959 183.565 81.5907 183.565H45V235.736Z" fill="#022C7B"/>
<path fill-rule="evenodd" clip-rule="evenodd" d="M45 114.916H140.3C134.897 101.488 111.959 62.7422 81.5907 62.7422H45V114.916Z" fill="#0076A8"/>
<path fill-rule="evenodd" clip-rule="evenodd" d="M388.543 183.565C358.172 183.565 335.238 222.31 329.834 235.735H520.435C515.032 222.31 492.092 183.565 461.727 183.565H388.543Z" fill="#022C7B"/>
</svg>
